<?xml version="1.0" standalone="no"?>
<!DOCTYPE svg PUBLIC "-//W3C//DTD SVG 20010904//EN"
 "http://www.w3.org/TR/2001/REC-SVG-20010904/DTD/svg10.dtd">
<svg version="1.0" xmlns="http://www.w3.org/2000/svg"
 width="294.000000pt" height="384.000000pt" viewBox="0 0 294.000000 384.000000"
 preserveAspectRatio="xMidYMid meet">
<metadata>
Created by potrace 1.14, written by Peter Selinger 2001-2017
</metadata>
<g transform="translate(0.000000,384.000000) scale(0.100000,-0.100000)"
fill="#4e4e4e" stroke="none">
<path d="M508 3566 c-74 -26 -123 -75 -147 -145 -16 -48 -15 -530 1 -585 16
-54 90 -128 144 -144 57 -17 531 -17 588 0 54 16 128 90 144 144 16 55 17 531
1 585 -17 55 -65 108 -123 135 -50 23 -58 24 -311 23 -191 0 -270 -3 -297 -13z"/>
<path d="M1828 3566 c-74 -26 -123 -75 -147 -145 -16 -48 -15 -530 1 -585 16
-54 90 -128 144 -144 57 -17 531 -17 588 0 54 16 128 90 144 144 16 55 17 531
1 585 -17 55 -65 108 -123 135 -50 23 -58 24 -311 23 -191 0 -270 -3 -297 -13z"/>
<path d="M508 2366 c-74 -26 -123 -75 -147 -145 -16 -48 -15 -530 1 -585 16
-54 90 -128 144 -144 57 -17 531 -17 588 0 54 16 128 90 144 144 16 55 17 531
1 585 -17 55 -65 108 -123 135 -50 23 -58 24 -311 23 -191 0 -270 -3 -297 -13z"/>
<path d="M1828 2366 c-74 -26 -123 -75 -147 -145 -16 -48 -15 -530 1 -585 16
-54 90 -128 144 -144 57 -17 531 -17 588 0 54 16 128 90 144 144 16 55 17 531
1 585 -17 55 -65 108 -123 135 -50 23 -58 24 -311 23 -191 0 -270 -3 -297 -13z"/>
<path d="M508 1166 c-74 -26 -123 -75 -147 -145 -16 -48 -15 -530 1 -585 16
-54 90 -128 144 -144 57 -17 531 -17 588 0 54 16 128 90 144 144 16 55 17 531
1 585 -17 55 -65 108 -123 135 -50 23 -58 24 -311 23 -191 0 -270 -3 -297 -13z"/>
<path d="M1828 1166 c-74 -26 -123 -75 -147 -145 -16 -48 -15 -530 1 -585 16
-54 90 -128 144 -144 57 -17 531 -17 588 0 54 16 128 90 144 144 16 55 17 531
1 585 -17 55 -65 108 -123 135 -50 23 -58 24 -311 23 -191 0 -270 -3 -297 -13z"/>
</g>
</svg>
