<?xml version="1.0" encoding="utf-8"?>
<!-- Generator: Adobe Illustrator 19.0.0, SVG Export Plug-In . SVG Version: 6.00 Build 0)  -->
<svg version="1.1" id="Layer_1" xmlns="http://www.w3.org/2000/svg" xmlns:xlink="http://www.w3.org/1999/xlink" x="0px" y="0px"
	 viewBox="0 0 96 96" style="enable-background:new 0 0 96 96;" xml:space="preserve">
<style type="text/css">
	.st0{fill:#333333;}
</style>
<g id="XMLID_2_">
	<path id="XMLID_7_" class="st0" d="M75.5,64v4.6c0,0.6-0.2,1.2-0.7,1.6c-0.5,0.5-1,0.7-1.6,0.7H22.8c-0.6,0-1.2-0.2-1.6-0.7
		s-0.7-1-0.7-1.6V64c0-0.6,0.2-1.2,0.7-1.6c0.5-0.5,1-0.7,1.6-0.7h50.4c0.6,0,1.2,0.2,1.6,0.7C75.3,62.9,75.5,63.4,75.5,64z
		 M75.5,45.7v4.6c0,0.6-0.2,1.2-0.7,1.6c-0.5,0.5-1,0.7-1.6,0.7H22.8c-0.6,0-1.2-0.2-1.6-0.7c-0.5-0.5-0.7-1-0.7-1.6v-4.6
		c0-0.6,0.2-1.2,0.7-1.6s1-0.7,1.6-0.7h50.4c0.6,0,1.2,0.2,1.6,0.7C75.3,44.6,75.5,45.1,75.5,45.7z M75.5,27.4V32
		c0,0.6-0.2,1.2-0.7,1.6c-0.5,0.5-1,0.7-1.6,0.7H22.8c-0.6,0-1.2-0.2-1.6-0.7c-0.5-0.5-0.7-1-0.7-1.6v-4.6c0-0.6,0.2-1.2,0.7-1.6
		s1-0.7,1.6-0.7h50.4c0.6,0,1.2,0.2,1.6,0.7C75.3,26.2,75.5,26.8,75.5,27.4z"/>
</g>
</svg>
